<svg height="229" width="300" viewBox="0 0 300 229" fill="none" xmlns="http://www.w3.org/2000/svg"><path d="M22 58.16C22 51.997 26.997 47 33.16 47h233.68c6.164 0 11.16 4.996 11.16 11.16V215H22V58.16z" fill="#16436C"/><path d="M32 57h236v148H32V57z" fill="#F1F2F2"/><path d="M0 215.364C0 214.61.61 214 1.364 214h297.272c.753 0 1.364.61 1.364 1.364 0 7.531-6.105 13.636-13.636 13.636H13.636C6.106 229 0 222.895 0 215.364z" fill="#DEE0E3"/><path d="M130 214.455c0-.252.204-.455.455-.455h39.091c.251 0 .454.203.454.455a4.546 4.546 0 01-4.546 4.546h-30.908a4.547 4.547 0 01-4.546-4.546z" fill="#B9BDC2"/><rect x="73" y="137" width="154" height="34" rx="17" fill="#69E6ED"/><path d="M98.905 160.101c1.959 0 2.929-1.054 2.929-2.327.017-1.59-1.121-1.891-2.845-2.561-.888-.318-1.54-.636-1.54-1.272 0-.619.619-.988 1.255-.988.703 0 1.456.218 2.16.871l.703-1.072c-.904-.736-1.825-1.004-2.813-1.004-1.54 0-2.678.937-2.678 2.193 0 1.49 1.121 2.026 2.444 2.494 1.188.435 1.942.636 1.942 1.356 0 .62-.57 1.105-1.557 1.105-1.138 0-1.858-.368-2.494-.988l-.687 1.038c.787.687 1.825 1.155 3.18 1.155zm4.475-8.253v11.467h1.355v-4.72h.017c.603.937 1.607 1.506 2.896 1.506 2.243 0 3.968-1.64 3.968-4.118 0-2.41-1.658-4.235-3.968-4.235-1.239 0-2.276.569-2.896 1.54h-.017v-1.44h-1.355zm4.084 7.015c-1.557 0-2.795-1.156-2.795-2.88 0-1.674 1.121-2.996 2.778-2.996 1.54 0 2.796 1.188 2.796 2.996 0 1.641-1.138 2.88-2.779 2.88zm6.613-8.504a.976.976 0 00.988-.971.976.976 0 00-.988-.971.976.976 0 00-.988.971c0 .535.436.971.988.971zm-.686 1.489v8.153h1.356v-8.153h-1.356zm3.63-4.168v12.321h1.356v-2.026l1.674-1.808 2.461 3.834h1.557l-3.08-4.788 3.047-3.365h-1.641l-4.001 4.47-.017-.017v-8.621h-1.356zm10.553.82a4.796 4.796 0 01-2.494 1.892v.904c.787 0 1.557-.134 2.26-.402v9.107h1.406V148.5h-1.172zm3.279 7.366l7.516 3.415v-1.356l-5.658-2.578 5.658-2.578v-1.373l-7.516 3.466v1.004zm16.692-.084c0-2.326-1.524-4.034-3.75-4.034-2.327 0-4.018 1.724-4.018 4.185 0 2.494 1.708 4.168 4.118 4.168 1.641 0 2.662-.619 3.365-1.523l-.954-.804c-.502.62-1.272 1.089-2.36 1.089-1.541 0-2.612-1.005-2.796-2.528h6.361c0-.101.034-.335.034-.553zm-3.767-2.795c1.339 0 2.21.904 2.411 2.243h-5.006c.252-1.389 1.289-2.243 2.595-2.243zm9.082 7.114c2.411 0 4.202-1.69 4.202-4.168 0-2.477-1.791-4.185-4.202-4.185-2.528 0-4.218 1.841-4.218 4.185 0 2.344 1.69 4.168 4.218 4.168zm0-1.238c-1.691 0-2.829-1.306-2.829-2.93s1.122-2.946 2.829-2.946c1.574 0 2.812 1.205 2.812 2.946s-1.255 2.93-2.812 2.93zm5.652-.938v1.356l7.516-3.415v-1.004l-7.516-3.466v1.373l5.658 2.578-5.658 2.578zm12.841-9.525c-2.31 0-4.034 1.607-4.034 3.767 0 2.226 1.523 3.615 3.532 3.615 1.138 0 2.176-.401 2.913-1.054-.687 2.578-2.712 3.95-4.805 4.486l.419 1.189c2.979-.553 5.993-3.298 5.993-7.483.016-2.729-1.758-4.52-4.018-4.52zm-.184 6.077c-1.473 0-2.427-.921-2.427-2.31 0-1.34 1.021-2.461 2.628-2.461 1.506 0 2.628 1.222 2.628 3.097v.1c-.603.938-1.674 1.574-2.829 1.574zm9.925 5.624c2.745 0 4.319-2.444 4.319-5.842 0-3.766-1.825-5.859-4.319-5.859-2.729 0-4.319 2.444-4.319 5.859 0 3.75 1.825 5.842 4.319 5.842zm0-1.305c-1.691 0-2.879-1.624-2.879-4.537 0-2.762 1.054-4.553 2.879-4.553 1.708 0 2.879 1.624 2.879 4.553 0 2.745-1.038 4.537-2.879 4.537zm10.175-6.044c-1.105 0-2.11.385-2.829 1.022.652-2.511 2.561-3.901 4.653-4.437l-.418-1.188c-3.03.552-5.842 3.365-5.842 7.449 0 2.729 1.757 4.503 4.034 4.503 2.293 0 3.984-1.59 3.984-3.699 0-2.294-1.507-3.65-3.582-3.65zm-.318 6.044c-1.524 0-2.746-1.239-2.746-3.047v-.101c.519-.837 1.473-1.607 2.746-1.607 1.506 0 2.494.955 2.494 2.344 0 1.306-.988 2.411-2.494 2.411zm6.978-1.624l-.519 3.415h.971l.519-3.415h2.745l-.536 3.415h.971l.519-3.415h2.411v-1.055h-2.243l.401-2.695h2.21l.017-1.038h-2.059l.519-3.365h-.971l-.519 3.365h-2.729l.519-3.365h-.971l-.519 3.365h-2.36v1.038h2.193l-.419 2.695h-2.126v1.055h1.976zm3.867-1.055h-2.746l.419-2.695h2.728l-.401 2.695z" fill="#16436C"/><path fill-rule="evenodd" clip-rule="evenodd" d="M149.546 0c9.447 8.632 34.906 25.605 62.566 26 1.055.015 1.913.87 1.882 1.924-.505 17.015-2.486 49.14-3.448 63.576-.167 6.5-5.5 22.7-25.5 35.5-25 16-32 18-35.5 18l-.023-.002-.023.002c-3.5 0-10.5-2-35.5-18-20-12.8-25.333-29-25.5-35.5-.962-14.436-2.943-46.56-3.448-63.575-.03-1.055.827-1.91 1.882-1.925 27.66-.394 53.119-17.368 62.566-26l.023.951.023-.951z" fill="#0572EC"/><path d="M126 65.842a3.72 3.72 0 013.72-3.72h40.56a3.72 3.72 0 013.72 3.72v32.56a3.72 3.72 0 01-3.72 3.72h-40.56a3.72 3.72 0 01-3.72-3.72v-32.56z" fill="#fff"/><path d="M138.714 62.122v-8.836C138.714 47.053 143.767 42 150 42v0c6.233 0 11.286 5.053 11.286 11.286v8.836" stroke="#02346E" stroke-width="7.44"/><path fill-rule="evenodd" clip-rule="evenodd" d="M153.918 76.082a3.91 3.91 0 01-1.453 3.046l1.452 9.198h-7.836l1.452-9.2a3.918 3.918 0 116.385-3.045zM145 94.184a1 1 0 100 2h9.999a1 1 0 100-2H145z" fill="#B9BDC2"/></svg>