<svg xmlns="http://www.w3.org/2000/svg" xmlns:xlink="http://www.w3.org/1999/xlink" width="375" viewBox="0 0 375 375" height="375" version="1.0"><defs><clipPath id="a"><path d="M 92 139 L 177 139 L 177 247 L 92 247 Z M 92 139"/></clipPath><clipPath id="b"><path d="M 105.863281 100.480469 L 229.761719 150.195312 L 180.046875 274.089844 L 56.148438 224.378906 Z M 105.863281 100.480469"/></clipPath><clipPath id="c"><path d="M 105.863281 100.480469 L 229.761719 150.195312 L 180.046875 274.089844 L 56.148438 224.378906 Z M 105.863281 100.480469"/></clipPath><clipPath id="d"><path d="M 95 175 L 137 175 L 137 218 L 95 218 Z M 95 175"/></clipPath><clipPath id="e"><path d="M 105.863281 100.480469 L 229.761719 150.195312 L 180.046875 274.089844 L 56.148438 224.378906 Z M 105.863281 100.480469"/></clipPath><clipPath id="f"><path d="M 105.863281 100.480469 L 229.761719 150.195312 L 180.046875 274.089844 L 56.148438 224.378906 Z M 105.863281 100.480469"/></clipPath><clipPath id="g"><path d="M 118 151 L 166 151 L 166 194 L 118 194 Z M 118 151"/></clipPath><clipPath id="h"><path d="M 105.863281 100.480469 L 229.761719 150.195312 L 180.046875 274.089844 L 56.148438 224.378906 Z M 105.863281 100.480469"/></clipPath><clipPath id="i"><path d="M 105.863281 100.480469 L 229.761719 150.195312 L 180.046875 274.089844 L 56.148438 224.378906 Z M 105.863281 100.480469"/></clipPath><clipPath id="j"><path d="M 108 189 L 158 189 L 158 230 L 108 230 Z M 108 189"/></clipPath><clipPath id="k"><path d="M 105.863281 100.480469 L 229.761719 150.195312 L 180.046875 274.089844 L 56.148438 224.378906 Z M 105.863281 100.480469"/></clipPath><clipPath id="l"><path d="M 105.863281 100.480469 L 229.761719 150.195312 L 180.046875 274.089844 L 56.148438 224.378906 Z M 105.863281 100.480469"/></clipPath><clipPath id="m"><path d="M 143 142 L 174 142 L 174 173 L 143 173 Z M 143 142"/></clipPath><clipPath id="n"><path d="M 105.863281 100.480469 L 229.761719 150.195312 L 180.046875 274.089844 L 56.148438 224.378906 Z M 105.863281 100.480469"/></clipPath><clipPath id="o"><path d="M 105.863281 100.480469 L 229.761719 150.195312 L 180.046875 274.089844 L 56.148438 224.378906 Z M 105.863281 100.480469"/></clipPath><clipPath id="p"><path d="M 140 213 L 171 213 L 171 244 L 140 244 Z M 140 213"/></clipPath><clipPath id="q"><path d="M 105.863281 100.480469 L 229.761719 150.195312 L 180.046875 274.089844 L 56.148438 224.378906 Z M 105.863281 100.480469"/></clipPath><clipPath id="r"><path d="M 105.863281 100.480469 L 229.761719 150.195312 L 180.046875 274.089844 L 56.148438 224.378906 Z M 105.863281 100.480469"/></clipPath><g id="s"><path d="M 5.882812 0 L 16.535156 0 C 17.101562 0 17.539062 -0.457031 17.539062 -1.023438 L 17.539062 -3.921875 C 17.539062 -4.488281 17.101562 -4.925781 16.535156 -4.925781 L 7.625 -4.925781 C 7.082031 -4.925781 6.644531 -5.359375 6.644531 -5.90625 L 6.644531 -11.527344 C 6.644531 -12.09375 7.082031 -12.527344 7.625 -12.527344 L 16.535156 -12.527344 C 17.101562 -12.527344 17.539062 -12.964844 17.539062 -13.53125 L 17.539062 -16.429688 C 17.539062 -16.996094 17.101562 -17.429688 16.535156 -17.429688 L 5.882812 -17.429688 C 3.050781 -17.429688 1.003906 -15.382812 1.003906 -12.550781 L 1.003906 -4.902344 C 1.003906 -2.070312 3.050781 0 5.882812 0 Z M 5.882812 0"/></g><g id="t"><path d="M 2.003906 0 L 5.644531 0 C 6.210938 0 6.644531 -0.457031 6.644531 -1.023438 L 6.644531 -5.535156 C 6.644531 -6.078125 7.082031 -6.515625 7.625 -6.515625 L 10.894531 -6.515625 C 11.460938 -6.515625 11.894531 -6.078125 11.894531 -5.535156 L 11.894531 -1.003906 C 11.894531 -0.4375 12.332031 0 12.898438 0 L 16.535156 0 C 17.101562 0 17.539062 -0.457031 17.539062 -1.023438 L 17.539062 -5.949219 C 17.539062 -6.992188 16.796875 -7.734375 15.753906 -7.734375 L 15.554688 -7.734375 C 15.011719 -7.734375 14.574219 -8.171875 14.574219 -8.714844 C 14.574219 -9.28125 15.011719 -9.71875 15.554688 -9.71875 L 15.6875 -9.71875 C 16.753906 -9.71875 17.539062 -10.5 17.539062 -11.570312 L 17.539062 -13.441406 C 17.539062 -15.753906 15.859375 -17.429688 13.550781 -17.429688 L 2.003906 -17.429688 C 1.4375 -17.429688 1.003906 -16.996094 1.003906 -16.429688 L 1.003906 -1.003906 C 1.003906 -0.4375 1.4375 0 2.003906 0 Z M 7.625 -10.9375 C 7.082031 -10.9375 6.644531 -11.375 6.644531 -11.917969 C 6.644531 -12.460938 7.082031 -12.898438 7.625 -12.898438 L 10.894531 -12.898438 C 11.460938 -12.898438 11.894531 -12.460938 11.894531 -11.917969 C 11.894531 -11.375 11.460938 -10.9375 10.894531 -10.9375 Z M 7.625 -10.9375"/></g><g id="u"><path d="M 2.003906 0 L 5.644531 0 C 6.210938 0 6.644531 -0.4375 6.644531 -1.003906 L 6.644531 -16.429688 C 6.644531 -16.996094 6.210938 -17.429688 5.644531 -17.429688 L 2.003906 -17.429688 C 1.4375 -17.429688 1.003906 -16.996094 1.003906 -16.429688 L 1.003906 -1.003906 C 1.003906 -0.4375 1.4375 0 2.003906 0 Z M 2.003906 0"/></g><g id="v"><path d="M 2.003906 0 L 12.765625 0 C 15.535156 0 17.539062 -2.027344 17.539062 -4.792969 L 17.539062 -6.210938 C 17.539062 -8.976562 15.535156 -10.980469 12.765625 -10.980469 L 7.625 -10.980469 C 7.082031 -10.980469 6.644531 -11.417969 6.644531 -11.960938 C 6.644531 -12.527344 7.082031 -12.964844 7.625 -12.964844 L 16.535156 -12.964844 C 17.101562 -12.964844 17.539062 -13.398438 17.539062 -13.964844 L 17.539062 -16.429688 C 17.539062 -16.996094 17.101562 -17.429688 16.535156 -17.429688 L 5.773438 -17.429688 C 3.007812 -17.429688 1.003906 -15.425781 1.003906 -12.660156 L 1.003906 -11.242188 C 1.003906 -8.476562 3.007812 -6.472656 5.773438 -6.472656 L 10.894531 -6.472656 C 11.460938 -6.472656 11.894531 -6.011719 11.894531 -5.46875 C 11.894531 -4.925781 11.460938 -4.488281 10.894531 -4.488281 L 2.003906 -4.488281 C 1.4375 -4.488281 1.003906 -4.050781 1.003906 -3.484375 L 1.003906 -1.003906 C 1.003906 -0.4375 1.4375 0 2.003906 0 Z M 2.003906 0"/></g><g id="w"><path d="M 6.035156 0 L 9.71875 0 C 10.328125 0 10.699219 -0.371094 10.699219 -1.003906 L 10.699219 -11.546875 C 10.699219 -12.09375 11.15625 -12.527344 11.699219 -12.527344 L 13.769531 -12.527344 C 14.378906 -12.527344 14.75 -12.898438 14.75 -13.507812 L 14.75 -16.449219 C 14.75 -17.058594 14.378906 -17.429688 13.769531 -17.429688 L 1.984375 -17.453125 C 1.351562 -17.453125 1.003906 -17.082031 1.003906 -16.472656 L 1.003906 -13.507812 C 1.003906 -12.898438 1.371094 -12.527344 1.984375 -12.527344 L 4.03125 -12.527344 C 4.597656 -12.527344 5.054688 -12.09375 5.054688 -11.546875 L 5.054688 -1.003906 C 5.054688 -0.371094 5.425781 0 6.035156 0 Z M 6.035156 0"/></g><g id="x"><path d="M 2.003906 0 L 5.644531 0 C 6.210938 0 6.644531 -0.4375 6.644531 -1.003906 L 6.644531 -3.8125 C 6.644531 -4.378906 7.082031 -4.816406 7.625 -4.816406 C 8.191406 -4.816406 8.628906 -4.359375 8.628906 -3.8125 L 8.628906 -1.003906 C 8.628906 -0.4375 9.0625 0 9.628906 0 L 13.269531 0 C 13.835938 0 14.269531 -0.4375 14.269531 -1.003906 L 14.269531 -12.550781 C 14.269531 -15.382812 12.222656 -17.429688 9.390625 -17.429688 L 5.882812 -17.429688 C 3.050781 -17.429688 1.003906 -15.382812 1.003906 -12.550781 L 1.003906 -1.003906 C 1.003906 -0.4375 1.4375 0 2.003906 0 Z M 7.625 -8.867188 C 7.082031 -8.867188 6.644531 -9.304688 6.644531 -9.847656 L 6.644531 -11.851562 C 6.644531 -12.417969 7.082031 -12.855469 7.625 -12.855469 C 8.191406 -12.855469 8.628906 -12.417969 8.628906 -11.851562 L 8.628906 -9.847656 C 8.628906 -9.304688 8.191406 -8.867188 7.625 -8.867188 Z M 7.625 -8.867188"/></g><g id="y"><path d="M 2.003906 0 L 5.644531 0 C 6.210938 0 6.644531 -0.4375 6.644531 -1.003906 L 6.644531 -11.15625 C 6.644531 -11.699219 7.082031 -12.136719 7.625 -12.136719 C 8.191406 -12.136719 8.628906 -11.699219 8.628906 -11.15625 L 8.628906 -1.003906 C 8.628906 -0.4375 9.0625 0 9.628906 0 L 20.023438 0 C 20.589844 0 21.023438 -0.4375 21.023438 -1.003906 L 21.023438 -16.429688 C 21.023438 -16.996094 20.589844 -17.429688 20.023438 -17.429688 L 16.382812 -17.429688 C 15.816406 -17.429688 15.382812 -16.996094 15.382812 -16.429688 L 15.382812 -6.210938 C 15.382812 -5.664062 14.945312 -5.230469 14.378906 -5.230469 C 13.835938 -5.230469 13.398438 -5.664062 13.398438 -6.210938 L 13.398438 -16.429688 C 13.398438 -17.015625 12.964844 -17.429688 12.398438 -17.429688 L 2.003906 -17.429688 C 1.4375 -17.429688 1.003906 -16.996094 1.003906 -16.429688 L 1.003906 -1.003906 C 1.003906 -0.4375 1.4375 0 2.003906 0 Z M 2.003906 0"/></g><g id="z"><path d="M 5.882812 0 L 9.390625 0 C 12.222656 0 14.269531 -2.070312 14.269531 -4.902344 L 14.269531 -12.550781 C 14.269531 -15.382812 12.222656 -17.429688 9.390625 -17.429688 L 5.882812 -17.429688 C 3.050781 -17.429688 1.003906 -15.382812 1.003906 -12.550781 L 1.003906 -4.902344 C 1.003906 -2.070312 3.050781 0 5.882812 0 Z M 7.625 -4.488281 C 7.082031 -4.488281 6.644531 -4.925781 6.644531 -5.46875 L 6.644531 -11.960938 C 6.644531 -12.527344 7.082031 -12.964844 7.625 -12.964844 C 8.191406 -12.964844 8.628906 -12.527344 8.628906 -11.960938 L 8.628906 -5.46875 C 8.628906 -4.925781 8.191406 -4.488281 7.625 -4.488281 Z M 7.625 -4.488281"/></g><g id="B"><path d="M 2.003906 0 L 12.179688 0 C 12.746094 0 13.179688 -0.4375 13.179688 -1.003906 L 13.179688 -3.921875 C 13.179688 -4.488281 12.746094 -4.925781 12.179688 -4.925781 L 7.648438 -4.925781 C 7.082031 -4.925781 6.644531 -5.359375 6.644531 -5.90625 L 6.644531 -16.429688 C 6.644531 -16.996094 6.210938 -17.429688 5.644531 -17.429688 L 2.003906 -17.429688 C 1.4375 -17.429688 1.003906 -16.996094 1.003906 -16.429688 L 1.003906 -1.003906 C 1.003906 -0.4375 1.4375 0 2.003906 0 Z M 2.003906 0"/></g><g id="C"><path d="M 2.003906 0 L 5.644531 0 C 6.210938 0 6.644531 -0.4375 6.644531 -1.003906 L 6.644531 -11.15625 C 6.644531 -11.699219 7.082031 -12.136719 7.625 -12.136719 C 8.191406 -12.136719 8.628906 -11.699219 8.628906 -11.15625 L 8.628906 -1.003906 C 8.628906 -0.4375 9.0625 0 9.628906 0 L 13.269531 0 C 13.835938 0 14.269531 -0.457031 14.269531 -1.003906 L 14.269531 -11.15625 C 14.269531 -11.699219 14.707031 -12.136719 15.25 -12.136719 C 15.816406 -12.136719 16.253906 -11.699219 16.253906 -11.15625 L 16.253906 -1.003906 C 16.253906 -0.4375 16.6875 0 17.253906 0 L 20.894531 0 C 21.460938 0 21.894531 -0.4375 21.894531 -1.003906 L 21.894531 -16.429688 C 21.894531 -16.996094 21.460938 -17.429688 20.894531 -17.429688 L 13.441406 -17.429688 C 12.875 -17.429688 12.441406 -16.996094 12.441406 -16.429688 L 12.441406 -14.726562 C 12.441406 -14.183594 12.003906 -13.746094 11.4375 -13.746094 C 10.894531 -13.746094 10.457031 -14.183594 10.457031 -14.726562 L 10.457031 -16.429688 C 10.457031 -16.996094 10.023438 -17.429688 9.457031 -17.429688 L 2.003906 -17.429688 C 1.4375 -17.429688 1.003906 -16.996094 1.003906 -16.429688 L 1.003906 -1.003906 C 1.003906 -0.4375 1.4375 0 2.003906 0 Z M 2.003906 0"/></g></defs><path fill="#FFF" d="M-37.5 -37.5H412.5V412.5H-37.5z"/><g clip-path="url(#a)"><g clip-path="url(#b)"><g clip-path="url(#c)"><path fill="#6CE200" d="M 173.570312 230.773438 C 174.566406 222.707031 170.003906 214.964844 162.472656 211.941406 C 161.042969 211.367188 159.53125 210.980469 157.988281 210.789062 C 153.238281 210.203125 148.542969 211.496094 144.769531 214.441406 C 144.472656 214.671875 144.191406 214.910156 143.914062 215.15625 L 136.109375 208.746094 C 137.828125 205.921875 138.949219 202.746094 139.363281 199.367188 C 140.136719 193.132812 138.378906 187.046875 134.789062 182.277344 L 147.410156 171.335938 C 148.796875 172.484375 150.382812 173.4375 152.125 174.136719 C 153.554688 174.710938 155.0625 175.101562 156.605469 175.289062 C 161.355469 175.878906 166.050781 174.585938 169.824219 171.640625 C 173.601562 168.695312 176 164.457031 176.589844 159.710938 C 177.585938 151.644531 173.023438 143.902344 165.488281 140.878906 C 164.058594 140.304688 162.550781 139.917969 161.003906 139.726562 C 151.199219 138.511719 142.238281 145.503906 141.019531 155.3125 C 140.496094 159.539062 141.507812 163.679688 143.671875 167.09375 L 130.867188 178.195312 C 129.054688 176.722656 127.007812 175.496094 124.757812 174.59375 C 122.875 173.835938 120.894531 173.324219 118.863281 173.074219 C 112.613281 172.304688 106.433594 174.011719 101.46875 177.882812 C 96.5 181.757812 93.339844 187.332031 92.570312 193.582031 C 91.253906 204.191406 97.257812 214.378906 107.171875 218.359375 C 109.054688 219.113281 111.039062 219.625 113.074219 219.878906 C 119.320312 220.648438 125.5 218.941406 130.464844 215.070312 C 131.226562 214.476562 131.933594 213.84375 132.601562 213.175781 L 140.320312 219.515625 C 139.105469 221.59375 138.308594 223.914062 138.003906 226.371094 C 137.003906 234.4375 141.570312 242.179688 149.105469 245.199219 C 150.535156 245.773438 152.042969 246.164062 153.585938 246.355469 C 158.335938 246.945312 163.035156 245.644531 166.804688 242.703125 C 170.582031 239.757812 172.980469 235.523438 173.570312 230.773438"/></g></g></g><g clip-path="url(#d)"><g clip-path="url(#e)"><g clip-path="url(#f)"><path fill="#6CE200" d="M 136.558594 199.023438 C 135.15625 210.394531 124.792969 218.476562 113.417969 217.070312 C 102.042969 215.664062 93.964844 205.300781 95.371094 193.929688 C 96.777344 182.550781 107.140625 174.476562 118.515625 175.878906 C 129.890625 177.285156 137.96875 187.648438 136.558594 199.023438"/></g></g></g><g clip-path="url(#g)"><g clip-path="url(#h)"><g clip-path="url(#i)"><path fill="#6CE200" d="M 120.460938 192.824219 L 164.875 154.328125 C 165.460938 153.8125 165.523438 152.921875 165.015625 152.332031 C 164.503906 151.742188 163.613281 151.679688 163.019531 152.191406 L 118.613281 190.6875 C 118.023438 191.199219 117.957031 192.089844 118.46875 192.679688 C 118.980469 193.273438 119.875 193.335938 120.460938 192.824219"/></g></g></g><g clip-path="url(#j)"><g clip-path="url(#k)"><g clip-path="url(#l)"><path fill="#6CE200" d="M 109.480469 192.347656 L 154.894531 229.660156 C 155.496094 230.15625 156.386719 230.070312 156.878906 229.46875 C 157.375 228.863281 157.289062 227.972656 156.6875 227.476562 L 111.273438 190.164062 C 110.671875 189.671875 109.78125 189.757812 109.285156 190.359375 C 108.789062 190.960938 108.878906 191.855469 109.480469 192.347656"/></g></g></g><g clip-path="url(#m)"><g clip-path="url(#n)"><g clip-path="url(#o)"><path fill="#6CE200" d="M 173.785156 159.363281 C 172.761719 167.632812 165.226562 173.511719 156.953125 172.488281 C 148.679688 171.464844 142.804688 163.929688 143.824219 155.65625 C 144.851562 147.382812 152.386719 141.507812 160.660156 142.53125 C 168.933594 143.554688 174.808594 151.089844 173.785156 159.363281"/></g></g></g><g clip-path="url(#p)"><g clip-path="url(#q)"><g clip-path="url(#r)"><path fill="#6CE200" d="M 170.765625 230.425781 C 169.746094 238.699219 162.207031 244.574219 153.933594 243.550781 C 145.660156 242.527344 139.789062 234.992188 140.808594 226.71875 C 141.832031 218.445312 149.367188 212.570312 157.644531 213.59375 C 165.917969 214.613281 171.789062 222.152344 170.765625 230.425781"/></g></g></g><g fill="#FFF"><use x="101.544" y="204.442" xmlns:xlink="http://www.w3.org/1999/xlink" xlink:href="#s" xlink:type="simple" xlink:actuate="onLoad" xlink:show="embed"/></g><g fill="#FFF"><use x="120.084" y="204.442" xmlns:xlink="http://www.w3.org/1999/xlink" xlink:href="#t" xlink:type="simple" xlink:actuate="onLoad" xlink:show="embed"/></g><g fill="#FDC600"><use x="138.623" y="204.442" xmlns:xlink="http://www.w3.org/1999/xlink" xlink:href="#u" xlink:type="simple" xlink:actuate="onLoad" xlink:show="embed"/></g><g fill="#FDC600"><use x="146.269" y="204.442" xmlns:xlink="http://www.w3.org/1999/xlink" xlink:href="#v" xlink:type="simple" xlink:actuate="onLoad" xlink:show="embed"/></g><g fill="#FDC600"><use x="164.808" y="204.442" xmlns:xlink="http://www.w3.org/1999/xlink" xlink:href="#w" xlink:type="simple" xlink:actuate="onLoad" xlink:show="embed"/></g><g fill="#FDC600"><use x="180.559" y="204.442" xmlns:xlink="http://www.w3.org/1999/xlink" xlink:href="#u" xlink:type="simple" xlink:actuate="onLoad" xlink:show="embed"/></g><g fill="#FDC600"><use x="188.205" y="204.442" xmlns:xlink="http://www.w3.org/1999/xlink" xlink:href="#x" xlink:type="simple" xlink:actuate="onLoad" xlink:show="embed"/></g><g fill="#FDC600"><use x="203.477" y="204.442" xmlns:xlink="http://www.w3.org/1999/xlink" xlink:href="#y" xlink:type="simple" xlink:actuate="onLoad" xlink:show="embed"/></g><g fill="#FDC600"><use x="225.502" y="204.442" xmlns:xlink="http://www.w3.org/1999/xlink" xlink:href="#z" xlink:type="simple" xlink:actuate="onLoad" xlink:show="embed"/></g><g fill="#FDC600"><use x="240.773" y="204.442" xmlns:xlink="http://www.w3.org/1999/xlink" xlink:href="#A" xlink:type="simple" xlink:actuate="onLoad" xlink:show="embed"/></g><g fill="#FDC600"><use x="247.657" y="204.442" xmlns:xlink="http://www.w3.org/1999/xlink" xlink:href="#B" xlink:type="simple" xlink:actuate="onLoad" xlink:show="embed"/></g><g fill="#FDC600"><use x="261.839" y="204.442" xmlns:xlink="http://www.w3.org/1999/xlink" xlink:href="#u" xlink:type="simple" xlink:actuate="onLoad" xlink:show="embed"/></g><g fill="#FDC600"><use x="269.486" y="204.442" xmlns:xlink="http://www.w3.org/1999/xlink" xlink:href="#C" xlink:type="simple" xlink:actuate="onLoad" xlink:show="embed"/></g><g fill="#FDC600"><use x="292.382" y="204.442" xmlns:xlink="http://www.w3.org/1999/xlink" xlink:href="#x" xlink:type="simple" xlink:actuate="onLoad" xlink:show="embed"/></g></svg>